# xmcd
#
# Track frame offsets: 
#        150
#        16200
#        32680
#        46947
#        66853
#
# Disc length: 1077 seconds
#
# Revision: 1
# Processed by: cddbd v1.5.2PL0 Copyright (c) Steve Scherf et al.
# Submitted via: ExactAudioCopyFreeDBPlugin 1.0
#
DISCID=36043305
DTITLE=Harry Jakamarra - Harry Jakamarra
DYEAR=2017
DGENRE=Blues
TTITLE0=Salt Creek
TTITLE1=The Mountain
TTITLE2=Holding Yard
TTITLE3=Notify The Lord
TTITLE4=Gypsy Trail
EXTD=
EXTT0=
EXTT1=
EXTT2=
EXTT3=
EXTT4=
PLAYORDER=
